# xmcd
#
# Track frame offsets: 
#        150
#        18045
#        29720
#        41440
#        53400
#        64677
#        75147
#        88730
#        99860
#        113135
#        122762
#        135172
#        148332
#        161870
#        177960
#        189862
#
# Disc length: 2690 seconds
#
# Revision: 0
# Processed by: cddbd v1.5.2PL0 Copyright (c) Steve Scherf et al.
# Submitted via: ExactAudioCopy v0.95b4
#
DISCID=c10a8010
DTITLE=Various Artist - This Is America Vol. 3
DYEAR=1900
DGENRE=Soul
TTITLE0=Percy Sledge - When A Man Loves A Woman
TTITLE1=Sam and Dave - Soul Man
TTITLE2=LLoyd Price - Personality
TTITLE3=The Drifters - Save The Last Dance For Me
TTITLE4=Solomon Burke - If You Need Me
TTITLE5=Rufus Thomas - Walking The Dog
TTITLE6=Ben E. King - Stand By Me
TTITLE7=Ike and Tina Turner- It's Gonna Work Out Fine
TTITLE8=Dionne Warwick - Walk On By
TTITLE9=James Brown - Papa's Got A Brand New Bag
TTITLE10=The Temptations - My Girl
TTITLE11=Mary Wells - My Guy
TTITLE12=Marvin Gaye - How Sweet It Is
TTITLE13=Harold Melvin - If You Don't Know Me By Now
TTITLE14=Wilson Pickett - In The Midnight Hour
TTITLE15=Sam Cooke - Twistin' The Night Away
EXTD=
EXTT0=
EXTT1=
EXTT2=
EXTT3=
EXTT4=
EXTT5=
EXTT6=
EXTT7=
EXTT8=
EXTT9=
EXTT10=
EXTT11=
EXTT12=
EXTT13=
EXTT14=
EXTT15=
PLAYORDER=
